<?xml version="1.0" encoding="UTF-8" standalone="no" ?>
<!DOCTYPE svg PUBLIC "-//W3C//DTD SVG 1.1//EN" "http://www.w3.org/Graphics/SVG/1.1/DTD/svg11.dtd">
<svg xmlns="http://www.w3.org/2000/svg" xmlns:xlink="http://www.w3.org/1999/xlink" version="1.1" width="1280" height="1024" viewBox="0 0 1280 1024" xml:space="preserve">
<desc>Created with Fabric.js 5.3.0</desc>
<defs>
</defs>
<g transform="matrix(1 0 0 1 640 512)" id="background-logo"  >
<rect style="stroke: none; stroke-width: 0; stroke-dasharray: none; stroke-linecap: butt; stroke-dashoffset: 0; stroke-linejoin: miter; stroke-miterlimit: 4; fill: rgb(255,255,255); fill-opacity: 0; fill-rule: nonzero; opacity: 1;"  paint-order="stroke"  x="-640" y="-512" rx="0" ry="0" width="1280" height="1024" />
</g>
<g transform="matrix(1.9211538461538462 0 0 1.9211538461538462 298.6292223095051 511.80380989787903)" id="logo-logo"  >
<g style=""  paint-order="stroke"   >
		<g transform="matrix(0.18930298607950988 0 0 -0.1893029860795099 0 0)"  >
<path style="stroke: none; stroke-width: 1; stroke-dasharray: none; stroke-linecap: butt; stroke-dashoffset: 0; stroke-linejoin: miter; stroke-miterlimit: 10; fill: rgb(31,119,214); fill-rule: evenodd; opacity: 1;"  paint-order="stroke"  transform=" translate(-6120.691801313054, -5070.655000000001)" d="M 6804.89 4883.05 C 6786.6900000000005 4756.77 6618.89 4748.45 6518.42 4761.34 C 6580.81 4776.05 6675.17 4797.39 6683.52 4874.46 C 6688.450000000001 4919.4800000000005 6657.09 4963.25 6601.320000000001 4994.25 C 6565.030000000001 4783.8 6381.660000000001 4623.66 6160.830000000001 4623.66 C 6027.27 4623.66 5907.380000000001 4682.3 5825.4400000000005 4775.22 C 6076.55 4719.780000000001 6251.7300000000005 4827.21 6316.820000000001 4939.88 C 6382.14 4937.55 6436.360000000001 4989.56 6436.360000000001 5054.97 C 6436.360000000001 5118.56 6384.77 5170.14 6321.18 5170.14 C 6257.570000000001 5170.14 6205.9800000000005 5118.56 6205.9800000000005 5054.97 C 6205.9800000000005 5024.62 6217.740000000001 4996.9800000000005 6236.9400000000005 4976.42 C 6163.72 4891.79 6055.820000000001 4869.43 5942.3 4886.01 C 5748.46 4914.37 5538.2 5056.42 5456.26 5196.46 C 5403.74 5286.24 5453.27 5345.17 5543.05 5362.76 C 5613.77 5376.59 5700.41 5363.84 5744.46 5342.38 C 5640.83 5354.62 5532.27 5331.650000000001 5557.63 5256.54 C 5572.97 5211.2 5641.68 5152.3 5716.88 5122.55 C 5742.59 5344.97 5931.56 5517.650000000001 6160.83 5517.650000000001 C 6303.68 5517.650000000001 6430.88 5450.660000000001 6512.7 5346.34 C 6334.71 5375.110000000001 6143.889999999999 5326.54 6020.38 5199.81 C 6013.93 5200.93 6007.31 5201.5 6000.52 5201.5 C 5936.92 5201.5 5885.360000000001 5149.97 5885.360000000001 5086.36 C 5885.360000000001 5022.71 5936.920000000001 4971.16 6000.52 4971.16 C 6064.13 4971.16 6115.71 5022.71 6115.71 5086.36 C 6115.71 5106.65 6110.46 5125.71 6101.22 5142.259999999999 C 6203.400000000001 5221.61 6370.55 5232.669999999999 6513.72 5190.249999999999 C 6635.38 5154.229999999999 6826.64 5034.109999999999 6804.89 4883.049999999999 z M 6321.18 5106.63 C 6292.66 5106.63 6269.530000000001 5083.49 6269.530000000001 5054.97 C 6269.530000000001 5026.43 6292.660000000001 5003.33 6321.18 5003.33 C 6349.68 5003.33 6372.8 5026.43 6372.8 5054.97 C 6372.8 5083.490000000001 6349.68 5106.63 6321.18 5106.63 z M 6000.52 5138 C 5971.990000000001 5138 5948.89 5114.84 5948.89 5086.36 C 5948.89 5057.82 5971.990000000001 5034.7 6000.52 5034.7 C 6029.05 5034.7 6052.160000000001 5057.82 6052.160000000001 5086.36 C 6052.160000000001 5114.839999999999 6029.050000000001 5138 6000.52 5138" stroke-linecap="round" />
</g>
</g>
</g>
<g transform="matrix(1.9211538461538462 0 0 1.9211538461538462 879.2798813183575 453.5756397260296)" id="text-logo"  >
<g style=""  paint-order="stroke"   >
		<g transform="matrix(1 0 0 1 0 0)" id="text-logo-path-0"  >
<path style="stroke: none; stroke-width: 0.5319148936170212; stroke-dasharray: none; stroke-linecap: butt; stroke-dashoffset: 0; stroke-linejoin: miter; stroke-miterlimit: 4; fill: rgb(31,119,214); fill-rule: nonzero; opacity: 1;"  paint-order="stroke"  transform=" translate(-183.525, 17.5)" d="M 2.5 0 L 11 0 L 11 -10 L 20 -10 C 28.35 -10 32.35 -13.9 32.35 -22.55 C 32.35 -30.8 28.45 -35 20 -35 L 2.5 -35 Z M 11 -17 L 11 -28 L 19.85 -28 C 22.5 -28 23.85 -26.3 23.85 -22.5 C 23.85 -18.85 22.55 -17 20 -17 Z M 37.35 0 L 65.85 0 L 65.85 -7 L 45.85 -7 L 45.85 -35 L 37.35 -35 Z M 97.85 0 L 106.35 0 L 93.1 -35 L 84.1 -35 L 70.85 0 L 79.35 0 L 81.8 -6.5 L 95.4 -6.5 Z M 84.45 -13.5 L 88.6 -24.45 L 92.75 -13.5 Z M 124.85 -13.5 L 124.85 0 L 133.35 0 L 133.35 -13.5 L 146.85 -35 L 137.85 -35 L 129.1 -21.05 L 120.35 -35 L 111.35 -35 Z M 182.6 0 L 191.6 0 L 201.35 -35 L 192.85 -35 L 186.7 -12.9 L 180.85 -35 L 172.35 -35 L 166.5 -12.9 L 160.35 -35 L 151.85 -35 L 161.6 0 L 170.6 0 L 176.6 -20.5 Z M 206.35 0 L 214.85 0 L 214.85 -11.5 L 221.2 -11.5 L 227.85 0 L 236.85 0 L 229.75 -12.3 C 234.05 -13.8 236.2 -17.5 236.2 -23.35 C 236.2 -31.1 232.3 -35 224.5 -35 L 206.35 -35 Z M 214.85 -18.5 L 214.85 -28 L 224.45 -28 C 226.5 -28 227.7 -26.45 227.7 -23.3 C 227.7 -20.1 226.6 -18.5 224.45 -18.5 Z M 241.85 0 L 250.35 0 L 250.35 -35 L 241.85 -35 Z M 273.4 0.5 C 284.55 0.5 290.25 -3.45 290.5 -11.45 L 290.5 -18.45 L 274.45 -18.45 L 274.45 -11.45 L 281.95 -11.45 C 281.6 -8.15 277.8 -6.5 273.4 -6.5 C 266.95 -6.5 263.85 -9.8 263.85 -17.55 C 263.85 -25 266.75 -28.5 273.4 -28.5 C 278.25 -28.5 282.05 -27 282.05 -23 L 290.55 -23 C 289.95 -31.35 283.4 -35.5 273.4 -35.5 C 261.2 -35.5 255.35 -30 255.35 -17.55 C 255.35 -5.35 260.85 0.5 273.4 0.5 Z M 320.55 0 L 329.05 0 L 329.05 -35 L 320.55 -35 L 320.55 -21 L 304.05 -21 L 304.05 -35 L 295.55 -35 L 295.55 0 L 304.05 0 L 304.05 -14 L 320.55 -14 Z M 345.05 0 L 353.55 0 L 353.55 -28 L 364.55 -28 L 364.55 -35 L 334.05 -35 L 334.05 -28 L 345.05 -28 Z" stroke-linecap="round" />
</g>
</g>
</g>
<g transform="matrix(1.9211538461538462 0 0 1.9211538461538462 879.4945702606653 545.3502683209559)" id="tagline-b7abf09b-adfd-43ef-bbb9-e8eab93f86d8-logo"  >
<g style=""  paint-order="stroke"   >
		<g transform="matrix(1 0 0 1 0 0)" id="tagline-b7abf09b-adfd-43ef-bbb9-e8eab93f86d8-logo-path-0"  >
<path style="stroke: none; stroke-width: 0; stroke-dasharray: none; stroke-linecap: butt; stroke-dashoffset: 0; stroke-linejoin: miter; stroke-miterlimit: 4; fill: rgb(31,119,214); fill-rule: nonzero; opacity: 1;"  paint-order="stroke"  transform=" translate(-155.02, 11.55)" d="M 5.05 0 L 5.05 -7.92 L 12.01 -7.92 C 16.93 -7.92 19.6 -10.36 19.6 -15.51 C 19.6 -20.43 17.16 -23.1 12.01 -23.1 L 1.09 -23.1 L 1.09 0 Z M 5.05 -11.88 L 5.05 -19.14 L 12.01 -19.14 C 15.15 -19.14 15.64 -18.61 15.64 -15.51 C 15.64 -12.38 15.11 -11.88 12.01 -11.88 Z M 44.32 -23.1 L 44.32 -9.9 C 44.32 -4.59 43.33 -3.63 38.28 -3.63 C 33.2 -3.63 32.27 -4.65 32.27 -9.9 L 32.27 -23.1 L 28.31 -23.1 L 28.31 -9.9 C 28.31 -2.84 31.12 0.33 38.28 0.33 C 45.21 0.33 48.28 -2.57 48.28 -9.9 L 48.28 -23.1 Z M 56.99 0 L 74.15 0 L 74.15 -3.96 L 60.95 -3.96 L 60.95 -23.1 L 56.99 -23.1 Z M 98.11 -16.5 L 102.07 -16.5 C 102.07 -21.45 99.59 -23.43 92.86 -23.43 C 84.84 -23.43 82.86 -20.63 82.86 -15.97 C 82.86 -13 84.94 -9.93 89.13 -9.74 L 96.36 -9.44 C 98.67 -9.34 98.87 -9.17 98.87 -7.13 C 98.87 -4.09 98.41 -3.63 92.83 -3.63 C 87.02 -3.63 86.82 -3.83 86.82 -7.13 L 82.86 -7.13 C 82.86 -1.98 84.98 0.33 92.83 0.33 C 100.45 0.33 102.83 -2.18 102.83 -7.13 C 102.83 -11.22 100.52 -13.23 96.56 -13.4 L 89.33 -13.7 C 87.29 -13.79 86.82 -14.52 86.82 -15.97 C 86.82 -19.04 87.15 -19.47 92.86 -19.47 C 97.88 -19.47 98.11 -19.27 98.11 -16.5 Z M 111.54 0 L 128.7 0 L 128.7 -3.96 L 115.5 -3.96 L 115.5 -9.57 L 125.4 -9.57 L 125.4 -13.53 L 115.5 -13.53 L 115.5 -19.14 L 128.7 -19.14 L 128.7 -23.1 L 111.54 -23.1 Z M 154.51 0 L 154.51 -7.92 L 160.31 -7.92 L 164.77 0 L 169.32 0 L 164.64 -8.35 C 167.51 -9.24 169.06 -11.62 169.06 -15.51 C 169.06 -20.43 166.62 -23.1 161.47 -23.1 L 150.55 -23.1 L 150.55 0 Z M 154.51 -11.88 L 154.51 -19.14 L 161.47 -19.14 C 164.6 -19.14 165.1 -18.61 165.1 -15.51 C 165.1 -12.38 164.57 -11.88 161.47 -11.88 Z M 178.03 0 L 195.19 0 L 195.19 -3.96 L 182 -3.96 L 182 -9.57 L 191.9 -9.57 L 191.9 -13.53 L 182 -13.53 L 182 -19.14 L 195.19 -19.14 L 195.19 -23.1 L 178.03 -23.1 Z M 207.87 0 L 207.87 -7.92 L 214.83 -7.92 C 219.75 -7.92 222.42 -10.36 222.42 -15.51 C 222.42 -20.43 219.98 -23.1 214.83 -23.1 L 203.91 -23.1 L 203.91 0 Z M 207.87 -11.88 L 207.87 -19.14 L 214.83 -19.14 C 217.96 -19.14 218.46 -18.61 218.46 -15.51 C 218.46 -12.38 217.93 -11.88 214.83 -11.88 Z M 242.71 -3.63 C 236.38 -3.63 235.09 -4.95 235.09 -11.55 C 235.09 -18.18 236.41 -19.47 242.71 -19.47 C 249.02 -19.47 250.3 -18.15 250.3 -11.55 C 250.3 -4.92 248.98 -3.63 242.71 -3.63 Z M 231.13 -11.55 C 231.13 -3.07 234.43 0.33 242.71 0.33 C 250.87 0.33 254.26 -2.9 254.26 -11.55 C 254.26 -20.1 250.96 -23.43 242.71 -23.43 C 234.53 -23.43 231.13 -20.2 231.13 -11.55 Z M 266.94 0 L 266.94 -7.92 L 272.75 -7.92 L 277.2 0 L 281.75 0 L 277.07 -8.35 C 279.94 -9.24 281.49 -11.62 281.49 -15.51 C 281.49 -20.43 279.05 -23.1 273.9 -23.1 L 262.98 -23.1 L 262.98 0 Z M 266.94 -11.88 L 266.94 -19.14 L 273.9 -19.14 C 277.03 -19.14 277.53 -18.61 277.53 -15.51 C 277.53 -12.38 277 -11.88 273.9 -11.88 Z M 301.69 0 L 301.69 -19.14 L 308.95 -19.14 L 308.95 -23.1 L 290.47 -23.1 L 290.47 -19.14 L 297.73 -19.14 L 297.73 0 Z" stroke-linecap="round" />
</g>
</g>
</g>
</svg>