<?xml version="1.0" encoding="utf-8" standalone="yes"?>
<!DOCTYPE svg PUBLIC "-//W3C//DTD SVG 1.1//EN" "http://www.w3.org/Graphics/SVG/1.1/DTD/svg11.dtd">
<svg width="768" height="564" viewBox="0 0 768 564" style="fill:none;stroke:none;fill-rule:evenodd;clip-rule:evenodd;stroke-linecap:round;stroke-linejoin:round;stroke-miterlimit:1.5;" version="1.1" xmlns="http://www.w3.org/2000/svg" xmlns:xlink="http://www.w3.org/1999/xlink"><style class="text-font-style fontImports" data-font-family="Roboto">@import url('https://fonts.googleapis.com/css2?family=Roboto:wght@400;700&amp;display=block');</style><rect id="" x="0" y="0" width="768" height="564" style="fill: #2c2c2c;"></rect><g id="items" style="isolation: isolate"><g id="blend" style="mix-blend-mode: normal"><g id="g-root-tf_4o6bcj1kdz37w-fill" data-item-order="-649728"><g id="tf_4o6bcj1kdz37w-fill" stroke="none" fill="#2c2c2c"><g><path d="M 0 0L 768 0L 768 564L 0 564Z"></path></g></g></g><g id="g-root-cp_6_g-6_1ums8ab1ke1uyv-fill" data-item-order="-336902" transform="translate(289.9930114746094, 178)"><g id="cp_6_g-6_1ums8ab1ke1uyv-fill" stroke="none" fill="#cb68f9"><g><path d="M 46.3731 10L 82.7461 31L 82.7461 73L 70.1888 80.25L 69.5596 92.1603L 58.9304 86.75L 46.3731 94L 10 73L 10 31L 46.3731 10Z"></path></g></g></g><g id="g-root-cp_5_g-5_1q6yq5v1ke1vr5-fill" data-item-order="-336898" transform="translate(242, 261.1409912109375)"><g id="cp_5_g-5_1q6yq5v1ke1vr5-fill" stroke="none" fill="#8769fd"><g><path d="M 10 31L 46.3731 10L 82.7461 31L 82.7461 45.5L 92.7461 52L 82.7461 58.5L 82.7461 73L 46.3731 94L 10 73L 10 31Z"></path></g></g></g><g id="g-root-cp_4_g-4_1q6yq5v1ke1vr7-fill" data-item-order="-336894" transform="translate(290.02801513671875, 344.27801513671875)"><g id="cp_4_g-4_1q6yq5v1ke1vr7-fill" stroke="none" fill="#1ac3fb"><g><path d="M 46.3731 94L 82.7461 73L 82.7461 31L 70.1888 23.75L 69.5596 11.8397L 58.9304 17.25L 46.3731 10L 10 31L 10 73L 46.3731 94Z"></path></g></g></g><g id="g-root-cp_3_g-3_1hbbpwz1ke1wjx-fill" data-item-order="-336890" transform="translate(386.0040283203125, 344.27801513671875)"><g id="cp_3_g-3_1hbbpwz1ke1wjx-fill" stroke="none" fill="#f79438"><g><path d="M 46.3731 94L 10 73L 10 31L 22.5574 23.75L 23.1865 11.8397L 33.8157 17.25L 46.3731 10L 82.7461 31L 82.7461 73L 46.3731 94Z"></path></g></g></g><g id="g-root-cp_2_g-2_1hbbpwz1ke1wjz-fill" data-item-order="-336886" transform="translate(423.99798583984375, 261.1409912109375)"><g id="cp_2_g-2_1hbbpwz1ke1wjz-fill" stroke="none" fill="#43dd93"><g><path d="M 92.7461 31L 56.3731 10L 20 31L 20 45.5L 10 52L 20 58.5L 20 73L 56.3731 94L 92.7461 73L 92.7461 31Z"></path></g></g></g><g id="g-root-cp_1_g-1_1lr581f1ke1wjl-fill" data-item-order="-336882" transform="translate(385.9949951171875, 178)"><g id="cp_1_g-1_1lr581f1ke1wjl-fill" stroke="none" fill="#4f91fc"><g><path d="M 46.3731 10L 10 31L 10 73L 22.5574 80.25L 23.1865 92.1603L 33.8157 86.75L 46.3731 94L 82.7461 73L 82.7461 31L 46.3731 10Z"></path></g></g></g><g id="g-root-tx_detailed_1cxdn1v1ke1wcv-fill" data-item-order="0" transform="translate(506, 158)"><g id="tx_detailed_1cxdn1v1ke1wcv-fill" stroke="none" fill="#ebf2ff"><g><text style="font: 15px Roboto, sans-serif; white-space: pre;" font-size="15px" font-family="Roboto, sans-serif"><tspan x="12" y="27.5" dominant-baseline="ideographic">Detailed test results </tspan><tspan x="12" y="45.5" dominant-baseline="ideographic">with metadata</tspan></text></g></g></g><g id="g-root-ic_time_18hk4xf1ke1x54-fill" data-item-order="0" transform="translate(308, 200)"></g><g id="g-root-ic_page_1q8uewj1kds35w-fill" data-item-order="0" transform="translate(404, 200)"></g><g id="g-root-tx_emailint_v4uodv1ke1wjq-fill" data-item-order="0" transform="translate(38, 248)"><g id="tx_emailint_v4uodv1ke1wjq-fill" stroke="none" fill="#8769fd"><g><text style="font: bold 20px Roboto, sans-serif; white-space: pre;" font-weight="bold" font-size="20px" font-family="Roboto, sans-serif"><tspan x="22.83" y="33.5" dominant-baseline="ideographic">Email Integration</tspan></text></g></g></g><g id="g-root-tx_sharding_2qmlv1ke1xc4-fill" data-item-order="0" transform="translate(542, 248)"><g id="tx_sharding_2qmlv1ke1xc4-fill" stroke="none" fill="#43dd93"><g><text style="font: bold 20px Roboto, sans-serif; white-space: pre;" font-weight="bold" font-size="20px" font-family="Roboto, sans-serif"><tspan x="12" y="33.5" dominant-baseline="ideographic">Sharding Support</tspan></text></g></g></g><g id="g-root-tx_insights_zko6ib1ke1vrh-fill" data-item-order="0" transform="translate(74, 170)"><g id="tx_insights_zko6ib1ke1vrh-fill" stroke="none" fill="#faeeff"><g><text style="font: 15px Roboto, sans-serif; white-space: pre;" font-size="15px" font-family="Roboto, sans-serif"><tspan x="15.79" y="30.5" dominant-baseline="ideographic">Insights into test results</tspan></text></g></g></g><g id="g-root-tx_customre_1lt0nar1ke1vk6-fill" data-item-order="0" transform="translate(506, 122)"><g id="tx_customre_1lt0nar1ke1vk6-fill" stroke="none" fill="#4f91fc"><g><text style="font: bold 20px Roboto, sans-serif; white-space: pre;" font-weight="bold" font-size="20px" font-family="Roboto, sans-serif"><tspan x="12" y="33.5" dominant-baseline="ideographic">Custom Reporter</tspan></text></g></g></g><g id="g-root-tx_sendrepo_m97o4z1ke1xcf-fill" data-item-order="0" transform="translate(38, 284)"><g id="tx_sendrepo_m97o4z1ke1xcf-fill" stroke="none" fill="#f1eeff"><g><text style="font: 15px Roboto, sans-serif; white-space: pre;" font-size="15px" font-family="Roboto, sans-serif"><tspan x="21.43" y="27.5" dominant-baseline="ideographic">Send reports directly to </tspan><tspan x="90.08" y="45.5" dominant-baseline="ideographic">stakeholders</tspan></text></g></g></g><g id="g-root-ic_supp_8xr8xf1kdl0xz-fill" data-item-order="0" transform="translate(260, 284)"></g><g id="g-root-ic_spre_1ur5q7n1ke0gzv-fill" data-item-order="0" transform="translate(452, 284)"></g><g id="g-root-tx_htmlande_2qmlv1ke1xc3-fill" data-item-order="0" transform="translate(506, 422)"><g id="tx_htmlande_2qmlv1ke1xc3-fill" stroke="none" fill="#fff0e2"><g><text style="font: 15px Roboto, sans-serif; white-space: pre;" font-size="15px" font-family="Roboto, sans-serif"><tspan x="12" y="27.5" dominant-baseline="ideographic">HTML and Email report </tspan><tspan x="12" y="45.5" dominant-baseline="ideographic">options</tspan></text></g></g></g><g id="g-root-tx_aianalys_zko6ib1ke1vrg-fill" data-item-order="0" transform="translate(134, 134)"><g id="tx_aianalys_zko6ib1ke1vrg-fill" stroke="none" fill="#cb68f9"><g><text style="font: bold 20px Roboto, sans-serif; white-space: pre;" font-weight="bold" font-size="20px" font-family="Roboto, sans-serif"><tspan x="15.48" y="33.5" dominant-baseline="ideographic">AI Analysis</tspan></text></g></g></g><g id="g-root-tx_testingf_1cvi7sj1ke1xcb-fill" data-item-order="0" transform="translate(212, 38)"><g id="tx_testingf_1cvi7sj1ke1xcb-fill" stroke="none" fill="#f4f4f4"><g><text style="font: bold 25px Roboto, sans-serif; white-space: pre;" font-weight="bold" font-size="25px" font-family="Roboto, sans-serif"><tspan x="11.86" y="42.5" dominant-baseline="ideographic">Testing Framework Features</tspan></text></g></g></g><g id="g-root-ic_chec_94mgvn1ke1w5l-fill" data-item-order="0" transform="translate(308, 368)"></g><g id="g-root-ic_text_142da7n1kdmf4a-fill" data-item-order="0" transform="translate(404, 368)"></g><g id="g-root-tx_cicdread_hu0n3n1ke1uyw-fill" data-item-order="0" transform="translate(122, 386)"><g id="tx_cicdread_hu0n3n1ke1uyw-fill" stroke="none" fill="#1ac3fb"><g><text style="font: bold 20px Roboto, sans-serif; white-space: pre;" font-weight="bold" font-size="20px" font-family="Roboto, sans-serif"><tspan x="14.92" y="33.5" dominant-baseline="ideographic">CI/CD Ready</tspan></text></g></g></g><g id="g-root-tx_reportin_4ik4qb1ke1wju-fill" data-item-order="0" transform="translate(506, 386)"><g id="tx_reportin_4ik4qb1ke1wju-fill" stroke="none" fill="#f79438"><g><text style="font: bold 20px Roboto, sans-serif; white-space: pre;" font-weight="bold" font-size="20px" font-family="Roboto, sans-serif"><tspan x="12" y="33.5" dominant-baseline="ideographic">Reporting Options</tspan></text></g></g></g><g id="g-root-tx_githubac_de74z71ke1vr5-fill" data-item-order="0" transform="translate(98, 422)"><g id="tx_githubac_de74z71ke1vr5-fill" stroke="none" fill="#e5f8ff"><g><text style="font: 15px Roboto, sans-serif; white-space: pre;" font-size="15px" font-family="Roboto, sans-serif"><tspan x="51.34" y="30.5" dominant-baseline="ideographic">GitHub Actions </tspan><tspan x="22.95" y="48.5" dominant-baseline="ideographic">workflow examples </tspan><tspan x="95.42" y="66.5" dominant-baseline="ideographic">included</tspan></text></g></g></g><g id="g-root-tx_parallel_1q8u5f71ke1urx-fill" data-item-order="0" transform="translate(542, 284)"><g id="tx_parallel_1q8u5f71ke1urx-fill" stroke="none" fill="#dffff0"><g><text style="font: 15px Roboto, sans-serif; white-space: pre;" font-size="15px" font-family="Roboto, sans-serif"><tspan x="12" y="27.5" dominant-baseline="ideographic">Parallel test execution </tspan><tspan x="12" y="45.5" dominant-baseline="ideographic">across shards</tspan></text></g></g></g><g id="g-root-tf_4o6bcj1kdz37w-stroke" data-item-order="-649728"></g><g id="g-root-cp_6_g-6_1ums8ab1ke1uyv-stroke" data-item-order="-336902" transform="translate(289.9930114746094, 178)"><g id="cp_6_g-6_1ums8ab1ke1uyv-stroke" fill="none" stroke-linecap="round" stroke-linejoin="round" stroke-miterlimit="4" stroke="#2c2c2c" stroke-width="2"><g><path d="M 46.3731 10L 82.7461 31L 82.7461 73L 70.1888 80.25L 69.5596 92.1603L 58.9304 86.75L 46.3731 94L 10 73L 10 31L 46.3731 10Z"></path></g></g></g><g id="g-root-cp_5_g-5_1q6yq5v1ke1vr5-stroke" data-item-order="-336898" transform="translate(242, 261.1409912109375)"><g id="cp_5_g-5_1q6yq5v1ke1vr5-stroke" fill="none" stroke-linecap="round" stroke-linejoin="round" stroke-miterlimit="4" stroke="#2c2c2c" stroke-width="2"><g><path d="M 10 31L 46.3731 10L 82.7461 31L 82.7461 45.5L 92.7461 52L 82.7461 58.5L 82.7461 73L 46.3731 94L 10 73L 10 31Z"></path></g></g></g><g id="g-root-cp_4_g-4_1q6yq5v1ke1vr7-stroke" data-item-order="-336894" transform="translate(290.02801513671875, 344.27801513671875)"><g id="cp_4_g-4_1q6yq5v1ke1vr7-stroke" fill="none" stroke-linecap="round" stroke-linejoin="round" stroke-miterlimit="4" stroke="#2c2c2c" stroke-width="2"><g><path d="M 46.3731 94L 82.7461 73L 82.7461 31L 70.1888 23.75L 69.5596 11.8397L 58.9304 17.25L 46.3731 10L 10 31L 10 73L 46.3731 94Z"></path></g></g></g><g id="g-root-cp_3_g-3_1hbbpwz1ke1wjx-stroke" data-item-order="-336890" transform="translate(386.0040283203125, 344.27801513671875)"><g id="cp_3_g-3_1hbbpwz1ke1wjx-stroke" fill="none" stroke-linecap="round" stroke-linejoin="round" stroke-miterlimit="4" stroke="#2c2c2c" stroke-width="2"><g><path d="M 46.3731 94L 10 73L 10 31L 22.5574 23.75L 23.1865 11.8397L 33.8157 17.25L 46.3731 10L 82.7461 31L 82.7461 73L 46.3731 94Z"></path></g></g></g><g id="g-root-cp_2_g-2_1hbbpwz1ke1wjz-stroke" data-item-order="-336886" transform="translate(423.99798583984375, 261.1409912109375)"><g id="cp_2_g-2_1hbbpwz1ke1wjz-stroke" fill="none" stroke-linecap="round" stroke-linejoin="round" stroke-miterlimit="4" stroke="#2c2c2c" stroke-width="2"><g><path d="M 92.7461 31L 56.3731 10L 20 31L 20 45.5L 10 52L 20 58.5L 20 73L 56.3731 94L 92.7461 73L 92.7461 31Z"></path></g></g></g><g id="g-root-cp_1_g-1_1lr581f1ke1wjl-stroke" data-item-order="-336882" transform="translate(385.9949951171875, 178)"><g id="cp_1_g-1_1lr581f1ke1wjl-stroke" fill="none" stroke-linecap="round" stroke-linejoin="round" stroke-miterlimit="4" stroke="#2c2c2c" stroke-width="2"><g><path d="M 46.3731 10L 10 31L 10 73L 22.5574 80.25L 23.1865 92.1603L 33.8157 86.75L 46.3731 94L 82.7461 73L 82.7461 31L 46.3731 10Z"></path></g></g></g><g id="g-root-tx_detailed_1cxdn1v1ke1wcv-stroke" data-item-order="0" transform="translate(506, 158)"></g><g id="g-root-ic_time_18hk4xf1ke1x54-stroke" data-item-order="0" transform="translate(308, 200)"><g id="ic_time_18hk4xf1ke1x54-stroke" fill="none" stroke-linecap="round" stroke-linejoin="round" stroke-miterlimit="4" stroke="#2c2c2c" stroke-width="2"><g><path d="M 28.375 11.125C 28.375 15.325 34.375 18.775015 42.775002 18.775015L 44.875 18.775015M 44.875 23.27515C 30.025002 23.27515 18.625 18.17515 18.625 12.02515M 32.725151 27.325001C 18.925076 28.525002 11.575075 33.02515 11.575075 38.27515M 26.575001 34.824997C 21.625 36.775002 18.625 39.625 18.625 42.625M 43.375 27.625L 44.875 27.625M 11.125 16.375C 11.125 21.625 18.625 26.125 32.724998 27.325001M 38.125 44.875C 41.852951 44.875 44.875 41.852951 44.875 38.125C 44.875 34.397049 41.852951 31.375 38.125 31.375C 34.397049 31.375 31.375 34.397049 31.375 38.125C 31.375 41.852951 34.397049 44.875 38.125 44.875ZM 38.125 31.375L 38.125 38.125L 44.839901 37.439499"></path></g></g></g><g id="g-root-ic_page_1q8uewj1kds35w-stroke" data-item-order="0" transform="translate(404, 200)"><g id="ic_page_1q8uewj1kds35w-stroke" fill="none" stroke-linecap="round" stroke-linejoin="round" stroke-miterlimit="4" stroke="#2c2c2c" stroke-width="2"><g><path d="M 28 40.375L 12.25 40.375C 11.421573 40.375 10.75 39.703426 10.75 38.875L 10.75 14.875C 10.75 14.046573 11.421573 13.375 12.25 13.375L 40.75 13.375C 41.578426 13.375 42.25 14.046573 42.25 14.875L 42.25 25.224998M 13.75 26.125L 15.25 27.625L 19.75 23.125M 22 26.875L 27.25 26.875M 24.25 23.875L 28.75 23.875M 10.75 19.375L 42.25 19.375M 28.75 32.168499C 28.75 35.920444 31.791553 38.961998 35.543499 38.961998C 39.295444 38.961998 42.336998 35.920444 42.336998 32.168499C 42.336998 28.416553 39.295444 25.375 35.543499 25.375C 31.791553 25.375 28.75 28.416553 28.75 32.168499ZM 45.25 41.875L 40.378002 37.003002"></path></g></g></g><g id="g-root-tx_emailint_v4uodv1ke1wjq-stroke" data-item-order="0" transform="translate(38, 248)"></g><g id="g-root-tx_sharding_2qmlv1ke1xc4-stroke" data-item-order="0" transform="translate(542, 248)"></g><g id="g-root-tx_insights_zko6ib1ke1vrh-stroke" data-item-order="0" transform="translate(74, 170)"></g><g id="g-root-tx_customre_1lt0nar1ke1vk6-stroke" data-item-order="0" transform="translate(506, 122)"></g><g id="g-root-tx_sendrepo_m97o4z1ke1xcf-stroke" data-item-order="0" transform="translate(38, 284)"></g><g id="g-root-ic_supp_8xr8xf1kdl0xz-stroke" data-item-order="0" transform="translate(260, 284)"><g id="ic_supp_8xr8xf1kdl0xz-stroke" fill="none" stroke-linecap="round" stroke-linejoin="round" stroke-miterlimit="4" stroke="#2c2c2c" stroke-width="2"><g><path d="M 35.290001 24.335501C 35.289631 26.348839 36.921661 27.981167 38.935001 27.981167C 40.948338 27.981167 42.580368 26.348839 42.579998 24.335501C 42.580368 22.322163 40.948338 20.689835 38.935001 20.689835C 36.921661 20.689835 35.289631 22.322163 35.290001 24.335501M 45.25 35.271999C 44.797523 32.132706 42.107483 29.802589 38.935749 29.802589C 35.764019 29.802589 33.073975 32.132706 32.621498 35.271999ZM 10.75 23.363501L 17.950001 29.191C 18.18589 29.38765 18.528608 29.38765 18.7645 29.191L 25.9645 23.363501M 24.589001 22.599998L 25.282 22.599998C 25.684557 22.623388 25.993107 22.966742 25.973499 23.369499L 25.973499 32.605C 25.993107 33.007759 25.684557 33.351112 25.282 33.3745L 11.4415 33.3745C 11.036477 33.351143 10.726973 33.004044 10.75 32.598999L 10.75 23.363501C 10.733775 22.963028 11.041384 22.623392 11.4415 22.599998L 24.589001 22.599998ZM 37.3195 17.535999C 35.498981 14.122251 32.061176 11.874615 28.203856 11.576191C 24.346535 11.277767 20.603928 12.969888 18.280001 16.063M 32.600502 16.928499L 37.320999 17.535999M 37.987 13.54L 37.320999 17.535999M 18.005501 38.464001C 19.826021 41.87775 23.263824 44.125385 27.121147 44.423813C 30.978468 44.722233 34.721073 43.030113 37.045002 39.937M 22.726 39.071503L 18.005501 38.464001M 17.3395 42.459999L 18.005501 38.464001"></path></g></g></g><g id="g-root-ic_spre_1ur5q7n1ke0gzv-stroke" data-item-order="0" transform="translate(452, 284)"><g id="ic_spre_1ur5q7n1ke0gzv-stroke" fill="none" stroke-linecap="round" stroke-linejoin="round" stroke-miterlimit="4" stroke="#2c2c2c" stroke-width="2"><g><path d="M 30.625 11.50036C 32.275002 11.50036 33.625 12.85036 33.625 14.50036L 33.625 18.25036L 11.125 18.25036L 11.125 14.50036C 11.125 12.85036 12.475 11.50036 14.125 11.50036L 30.625 11.50036ZM 18.625 18.250179L 18.625 32.95015L 14.125 32.95015C 12.475 32.95015 11.125 31.600149 11.125 29.95015L 11.125 18.250179L 18.625 18.250179ZM 11.125 25.750151L 18.625 25.750151M 26.125 18.250179L 18.625 18.250179L 18.625 32.95015L 26.125 32.95015L 26.125 18.250179ZM 18.625 25.750151L 26.125 25.750151M 33.625 18.250179L 33.625 29.95015C 33.625 31.600149 32.275002 32.95015 30.625 32.95015L 26.125 32.95015L 26.125 18.250179L 33.625 18.250179ZM 26.125 25.750151L 33.625 25.750151M 10 10M 41.574997 15.25036L 41.574997 28.750151M 10 10M 38.125 28.750151L 41.574997 32.20015L 44.875 28.750151M 10 10M 38.125 15.25027L 41.574997 11.8003L 44.875 15.25027M 10 10M 15.475016 40.90015L 29.125 40.90015M 10 10M 29.125 37.449997L 32.424999 40.900002L 29.125 44.349998M 10 10M 15.475016 37.449997L 12.175014 40.900002L 15.475016 44.349998"></path></g></g></g><g id="g-root-tx_htmlande_2qmlv1ke1xc3-stroke" data-item-order="0" transform="translate(506, 422)"></g><g id="g-root-tx_aianalys_zko6ib1ke1vrg-stroke" data-item-order="0" transform="translate(134, 134)"></g><g id="g-root-tx_testingf_1cvi7sj1ke1xcb-stroke" data-item-order="0" transform="translate(212, 38)"></g><g id="g-root-ic_chec_94mgvn1ke1w5l-stroke" data-item-order="0" transform="translate(308, 368)"><g id="ic_chec_94mgvn1ke1w5l-stroke" fill="none" stroke-linecap="round" stroke-linejoin="round" stroke-miterlimit="4" stroke="#2c2c2c" stroke-width="2"><g><path d="M 36.925003 20.800104L 18.925014 20.800104L 18.925014 44.800148L 36.925003 44.800148L 36.925003 20.800104ZM 39.925003 29.19985L 44.724998 29.19985M 39.925003 35.199852L 44.724998 35.199852M 39.925003 41.199852L 43.224998 41.199852C 44.125 41.199852 44.724998 40.59985 44.724998 39.699852L 44.724998 24.699894C 44.724998 23.799896 44.125 23.199894 43.224998 23.199894L 39.925003 23.199894M 19.675014 28.749849L 36.925003 28.749849M 19.675014 36.999851L 36.925003 36.999851M 15.924985 29.19985L 11.125 29.19985M 15.924985 35.199852L 11.125 35.199852M 15.925 41.199852L 12.625 41.199852C 11.725 41.199852 11.125 40.59985 11.125 39.699852L 11.125 24.699894C 11.125 23.799896 11.725 23.199894 12.625 23.199894L 15.925 23.199894M 10 10M 25.674999 12.699895L 27.924999 14.79988L 31.674999 11.19989"></path></g></g></g><g id="g-root-ic_text_142da7n1kdmf4a-stroke" data-item-order="0" transform="translate(404, 368)"><g id="ic_text_142da7n1kdmf4a-stroke" fill="none" stroke-linecap="round" stroke-linejoin="round" stroke-miterlimit="4" stroke="#2c2c2c" stroke-width="2"><g><path d="M 34.070503 13.24C 34.459625 12.797071 34.553188 12.167268 34.309631 11.630347C 34.066078 11.093428 33.530575 10.748977 32.940998 10.75L 14.05 10.75C 13.460966 10.750156 12.926544 11.095048 12.683751 11.631716C 12.440958 12.168383 12.534738 12.79748 12.9235 13.24L 21.25 22.75L 21.25 31.196499C 21.249916 31.74983 21.554468 32.25827 22.042351 32.51931C 22.530237 32.780354 23.122211 32.751598 23.5825 32.4445L 25.0825 31.444C 25.499605 31.165714 25.750074 30.697418 25.75 30.195999L 25.75 22.75ZM 36.25 31.753L 42.25 31.753M 33.25 36.253002L 42.25 36.253002M 33.25 40.753002L 42.25 40.753002M 30.25 28.75C 30.25 27.921572 30.921572 27.25 31.75 27.25L 43.75 27.25C 44.578426 27.25 45.25 27.921572 45.25 28.75L 45.25 43.75C 45.25 44.578426 44.578426 45.25 43.75 45.25L 31.75 45.25C 30.921572 45.25 30.25 44.578426 30.25 43.75Z"></path></g></g></g><g id="g-root-tx_cicdread_hu0n3n1ke1uyw-stroke" data-item-order="0" transform="translate(122, 386)"></g><g id="g-root-tx_reportin_4ik4qb1ke1wju-stroke" data-item-order="0" transform="translate(506, 386)"></g><g id="g-root-tx_githubac_de74z71ke1vr5-stroke" data-item-order="0" transform="translate(98, 422)"></g><g id="g-root-tx_parallel_1q8u5f71ke1urx-stroke" data-item-order="0" transform="translate(542, 284)"></g></g></g><path id="wzqxa0j1kxyakp" d="M65.283 12.757a.35.35 0 0 0 .584.157l5.203-5.141-6.183 3.523.396 1.461zm-2.216-11.7a.35.35 0 0 0-.522.305v3.111l3.276-1.868-2.754-1.548zm3.728 2.105l-4.25 2.421v2.445l6.391-3.644-2.141-1.222zm4.708 3.303a.35.35 0 0 0 0-.609l-1.592-.9-7.365 4.199v1.782a.35.35 0 0 0 .523.305l8.435-4.777z M44.542 2.513c0-.433.355-.783.792-.783s.792.35.792.783-.355.783-.792.783-.792-.35-.792-.783zm59.171 0c0-.433.355-.783.792-.783s.792.35.792.783-.355.783-.792.783-.792-.35-.792-.783zm-85.951 7.636h-1.27v-.487c-.276.201-.864.609-1.881.609-1.202 0-2.274-.794-2.137-2.078.118-1.106 1.153-1.584 1.848-1.727l2.17-.345c0-.539-.29-.956-1.064-1.006s-1.21.305-1.571 1.017l-1.124-.605c1.218-2.631 5.029-1.764 5.029.414v4.207zm-1.27-2.86c.006.396-.062 1.112-.819 1.59-.587.37-1.841.299-1.903-.395-.049-.555.461-.791.906-.898l1.816-.297zm72.662 2.86h-1.27v-.487c-.276.201-.864.609-1.881.609-1.202 0-2.274-.794-2.137-2.078.118-1.106 1.153-1.584 1.848-1.727l2.17-.345c0-.539-.29-.956-1.064-1.006s-1.21.305-1.571 1.017l-1.124-.605c1.218-2.631 5.029-1.764 5.029.414v4.207zm-1.27-2.86c.006.396-.062 1.112-.82 1.59-.587.37-1.841.299-1.903-.395-.049-.555.461-.791.906-.898l1.816-.297zM99.096 10.149H97.85v-8.45h1.246v4.895l2.68-2.559h1.738l-2.633 2.535 2.715 3.578h-1.556l-2.077-2.707-.867.844v1.863zm6.053-6.114h-1.255v6.113h1.255V4.035zm-59.2 0h-1.255v6.113h1.255V4.035zm5.584 6.113V1.697h1.255v2.695c.361-.346 1-.485 1.47-.485 1.452 0 2.477 1.082 2.457 2.448v3.792h-1.27v-3.68c0-.408-.214-1.339-1.315-1.339-.968 0-1.342.756-1.342 1.339v3.681h-1.255zm-4.76-4.894V4.039h.621a.45.45 0 0 0 .45-.45v-.855h1.251v1.305h1.309v1.215h-1.309v3.109c0 .293.105.664.648.664.365 0 .531-.035.736-.07v1.137s-.361.113-.857.113c-1.398 0-1.777-1.051-1.777-1.788V5.254h-1.071zM36.528 4.039h-1.394l2.191 6.106h1.125l1.234-3.918 1.238 3.918h1.129l2.188-6.106h-1.383l-1.359 3.93-1.256-3.93h-1.124l-1.242 3.957-1.348-3.957zM26.212 7.141c-.02 1.566 1.187 3.129 3.223 3.129 1.566 0 2.383-.918 2.734-1.719L31.172 8c-.315.399-.801 1.094-1.738 1.094-1.145 0-1.825-.781-1.891-1.52h4.625c.074-.284.148-.995-.03-1.559-.336-1.064-1.221-2.102-2.839-2.102s-3.088 1.152-3.088 3.227zm1.363-.75h3.348c-.055-.43-.566-1.301-1.623-1.301a1.79 1.79 0 0 0-1.725 1.301zm-8.758.75c.038 1.758 1.277 3.133 3.145 3.133 1.074 0 1.723-.477 1.961-.672v.547h1.242V1.703h-1.258v2.888c-.414-.36-1.062-.68-1.93-.68-1.91 0-3.198 1.473-3.16 3.23zm1.309-.08c0 1.119.723 1.978 1.836 1.978a1.88 1.88 0 0 0 1.94-1.904c0-1.371-1.011-1.99-1.972-1.99s-1.805.798-1.805 1.916zm76.683-.028C96.771 5.275 95.532 3.9 93.664 3.9c-1.074 0-1.723.477-1.961.672v-.547h-1.242v8.22h1.258V9.583c.414.36 1.063.68 1.93.68 1.91 0 3.198-1.473 3.16-3.23zm-1.309.08c0-1.119-.723-1.978-1.836-1.978a1.88 1.88 0 0 0-1.94 1.904c0 1.371 1.011 1.99 1.972 1.99S95.5 8.231 95.5 7.113zM106.441 10.173V4.036h1.254v.382c.361-.346 1-.485 1.47-.485 1.452 0 2.477 1.082 2.457 2.448v3.792h-1.27V6.492c0-.408-.214-1.339-1.315-1.339-.969 0-1.342.756-1.342 1.339v3.681h-1.254zm-30.383-.021V1.824h1.084l4.215 5.777V1.824h1.32v8.328h-1.094l-4.207-5.796v5.796h-1.319zM5.24 10.149H4V2.377h1.014l2.664 3.597 2.654-3.592h1.03v7.766h-1.256V4.762L7.678 8.068 5.24 4.742v5.407z" transform="translate(632, 530)" fill="#acacac88" stroke="none"></path></svg>